<svg xmlns="http://www.w3.org/2000/svg" viewBox="0 0 83.63 111.11"><defs><style>.cls-1{fill:#f5d382;}.cls-2{fill:#fff;}</style></defs><g id="Capa_2" data-name="Capa 2"><g id="Arte"><path class="cls-1" d="M11.65,102l2.53-.36c2.54-.36,4.07.75,4.07,3s-1.54,3.73-4.07,4.09l-.65.1v2.07l-1.88.27Zm2.47,5c1.53-.21,2.2-.93,2.2-2.17s-.7-1.78-2.2-1.57l-.59.08v3.75Z"/><path class="cls-1" d="M26.45,109l-2.17.31-1.51-2.09a3.33,3.33,0,0,1-.53.11l-.65.09v2.27l-1.87.27v-9.12l2.52-.36c2.55-.36,4.07.64,4.07,2.87a3.36,3.36,0,0,1-1.75,3.08Zm-4.27-3.3c1.53-.21,2.2-.79,2.2-2.08s-.69-1.7-2.2-1.48l-.59.08v3.57Z"/><path class="cls-1" d="M28,99.68l6-.86v1.65l-4.16.59V104l3.66-.52v1.61l-3.66.52v1.31l4.35-.61v1.64L28,108.8Z"/><path class="cls-1" d="M35.19,106l1.53-1.1a1.76,1.76,0,0,0,1.86.88c.77-.11,1.27-.57,1.27-1.11s-.51-.8-1.37-1l-.47-.14c-1.35-.38-2.25-1-2.25-2.51a3,3,0,0,1,2.75-2.87,2.4,2.4,0,0,1,2.67,1.13l-1.47,1.14a1.08,1.08,0,0,0-1.2-.63,1,1,0,0,0-.9.93c0,.56.35.74,1.15,1l.47.13c1.6.46,2.5,1,2.5,2.6s-1.33,2.8-3.12,3.06A3.12,3.12,0,0,1,35.19,106Z"/><path class="cls-1" d="M43.19,97.52l6-.86v1.65l-4.16.59v2.9l3.66-.52v1.61l-3.66.51v1.32l4.34-.62v1.65l-6.22.89Z"/><path class="cls-1" d="M53.87,100.88a10.33,10.33,0,0,1-1.09-1.09,16,16,0,0,1,.13,1.64v3.83l-1.75.24V96.3l.19,0,4.59,3.66A10.62,10.62,0,0,1,57,101s-.12-1-.12-1.65V95.57l1.76-.25v9.2l-.19,0Z"/><path class="cls-1" d="M62.64,96.4l-2.6.37V95.12l7.08-1v1.65l-2.6.37v7.47l-1.88.26Z"/><path class="cls-1" d="M70.57,93.55l.16,0,4.17,8.6-2,.28-.43-1-3.7.53-.43,1.09-1.81.26ZM71.83,100l-.66-1.49a16,16,0,0,1-.55-1.56s-.27,1-.54,1.71l-.65,1.68Z"/><path class="cls-1" d="M78.84,97.34a11.8,11.8,0,0,1-1.08-1.1,16.06,16.06,0,0,1,.13,1.65v3.82l-1.76.25v-9.2l.19,0,4.6,3.67A11,11,0,0,1,82,97.49s-.13-1-.13-1.64V92l1.76-.25V101l-.19,0Z"/><g id="Rayos_Laser" data-name="Rayos Laser"><path class="cls-2" d="M9.67,26c1.25,4.84,1.87,7.26,3.11,12.13a.64.64,0,0,1-.4.71l-2.45.87c-.23.09-.47,0-.49-.22-1.24-4.77-1.86-7.16-3.1-12-.52.17-.78.26-1.3.41l1,12.69a.7.7,0,0,1-.42.59c-1,.31-1.5.45-2.5.69a.43.43,0,0,1-.5-.35L0,8.73a.45.45,0,0,1,.42-.49,17.88,17.88,0,0,0,2.27-.37,29.33,29.33,0,0,0,3.76-1c2-.67,3.88.28,4.05,2.26.42,5.12.63,7.68,1.06,12.8A5.16,5.16,0,0,1,9.67,26ZM7.08,10.3a.26.26,0,0,0-.36-.21c-1.23.41-1.85.6-3.07.91.44,5.43.67,8.15,1.11,13.56,1.23-.35,1.85-.56,3.07-1a.47.47,0,0,0,.32-.46C7.72,18,7.51,15.43,7.08,10.3Z"/><path class="cls-2" d="M22.76,36.63c-.34-2.5-.51-3.74-.84-6.23-.07-.17-.13-.23-.25-.23a15.65,15.65,0,0,0-2.16.07.22.22,0,0,0-.21.25l.1,6.18a.4.4,0,0,1-.36.44,20.06,20.06,0,0,0-2.62.48.3.3,0,0,1-.37-.36L15.81,4.05a.61.61,0,0,1,.37-.49,17.94,17.94,0,0,1,4.38-.66.43.43,0,0,1,.43.39Q23.6,20.13,26.16,37a.3.3,0,0,1-.36.39c-1-.17-1.56-.24-2.61-.33A.57.57,0,0,1,22.76,36.63Zm-3.29-9.79a15,15,0,0,1,1.64-.09c.18,0,.22-.11.21-.22C20.37,19.8,19.9,16.46,19,9.85c.11,6.71.16,10.07.27,16.79A.24.24,0,0,0,19.47,26.84Z"/><path class="cls-2" d="M32.78,4.64c1,.19,1.57.27,2.62.38a.45.45,0,0,1,.37.5c-.67,7.93-1,11.89-1.68,19.79v.06c.26,3.22.39,4.83.64,8a.3.3,0,0,1-.36.35c-1-.15-1.57-.24-2.62-.44a.56.56,0,0,1-.43-.48c-.25-3.23-.38-4.85-.64-8.08V24.7c-2-8.4-3-12.64-5-21a.33.33,0,0,1,.36-.39c1.05.17,1.57.28,2.62.49a.69.69,0,0,1,.42.43c1.05,5.35,1.58,8,2.63,13.36,0,.06.12.08.11,0,.23-5.1.34-7.64.56-12.74C32.45,4.76,32.55,4.6,32.78,4.64Z"/><path class="cls-2" d="M48.49,6.54c.69,8.29,1,12.44,1.72,20.73a5.27,5.27,0,0,1-3.45,5c-1.09.38-1.64.56-2.73.86A3.19,3.19,0,0,1,40,30.19c-.69-8.48-1-12.73-1.72-21.27a4,4,0,0,1,3.45-4.11,25.24,25.24,0,0,0,2.73-.67C46.48,3.54,48.32,4.49,48.49,6.54Zm-7.61,29.1c3.71-.57,5.56-1.43,9.27-2.78.28-.1.52,0,.55.26.07,1,.11,1.42.19,2.37a.69.69,0,0,1-.47.68c-3.7,1.34-5.56,2.22-9.26,2.83a.45.45,0,0,1-.5-.43l-.2-2.42A.48.48,0,0,1,40.88,35.64ZM45.08,7.7a.29.29,0,0,0-.37-.23,24.87,24.87,0,0,1-2.73.7.41.41,0,0,0-.31.4c.69,8.42,1,12.61,1.72,21a.3.3,0,0,0,.37.24c1.09-.3,1.63-.47,2.73-.85a.5.5,0,0,0,.31-.44C46.11,20.19,45.77,16,45.08,7.7Z"/><path class="cls-2" d="M56.1,34.39a2.36,2.36,0,0,1-3.13-2l-.55-6.64a.7.7,0,0,1,.42-.65c1-.33,1.5-.48,2.5-.74a.4.4,0,0,1,.49.38c.19,2.3.29,3.45.48,5.74a.41.41,0,0,0,.49.35,16.9,16.9,0,0,1,2.44-.36.51.51,0,0,0,.48-.48c-.2-2.38-.29-3.57-.49-5.94a134.87,134.87,0,0,0-7.58-11.16,2.66,2.66,0,0,1-.39-1.16C51,9,50.92,7.65,50.7,4.94a4,4,0,0,1,2.66-3.81A26,26,0,0,1,57.74,0a2.84,2.84,0,0,1,3.19,2.66l.55,6.82A.46.46,0,0,1,61,10a15.48,15.48,0,0,0-2.45.13.48.48,0,0,1-.49-.45c-.19-2.31-.29-3.47-.47-5.78a.42.42,0,0,0-.55-.35,24.21,24.21,0,0,0-2.45.59.58.58,0,0,0-.41.58c.19,2.3.28,3.46.47,5.77a122.09,122.09,0,0,1,7.53,12.11A3,3,0,0,1,62.64,24c.22,2.83.34,4.25.56,7.09a2.55,2.55,0,0,1-2.72,2.77A17.39,17.39,0,0,0,56.1,34.39Z"/><path class="cls-2" d="M19.93,43.72q1.2,14.85,2.39,29.7a.58.58,0,0,0,.49.48,38.08,38.08,0,0,1,5.86.89.74.74,0,0,1,.55.57l.2,2.54c0,.23-.19.41-.48.36-3.7-.76-5.56-1.25-9.26-.94a.47.47,0,0,1-.49-.4L16.52,44.27a.59.59,0,0,1,.41-.61,18.09,18.09,0,0,1,2.5-.41A.5.5,0,0,1,19.93,43.72Z"/><path class="cls-2" d="M38.29,79.14c-.34-2.47-.51-3.71-.84-6.2-.07-.17-.13-.23-.25-.23-.86,0-1.29-.07-2.16-.18-.11,0-.22,0-.21.2l.1,6.21a.3.3,0,0,1-.36.35c-1-.14-1.57-.23-2.62-.43a.5.5,0,0,1-.37-.53l-.24-33.28c0-.22.2-.36.37-.33a34.54,34.54,0,0,0,4.38.65.47.47,0,0,1,.43.43q2.55,16.47,5.17,32.93a.44.44,0,0,1-.36.52,16.53,16.53,0,0,1-2.61.28A.51.51,0,0,1,38.29,79.14ZM35.58,38.33c-.64,1.55-1,2.31-1.61,3.83a.22.22,0,0,1-.21.14L32.22,42a.36.36,0,0,1-.31-.4c.42-1.54.63-2.31,1-3.85a.18.18,0,0,1,.21-.19c.86.15,1.3.21,2.16.31C35.49,37.92,35.68,38.17,35.58,38.33ZM35,69.12c.65.08,1,.11,1.64.15.18,0,.22-.1.21-.22-1-6.77-1.42-10.19-2.37-17,.11,6.75.16,10.12.27,16.86A.33.33,0,0,0,35,69.12Z"/><path class="cls-2" d="M46.85,77.73a2.24,2.24,0,0,1-3.14-1.92l-.55-6.67a.63.63,0,0,1,.42-.62c1-.26,1.5-.42,2.5-.75a.37.37,0,0,1,.49.34c.19,2.28.29,3.42.48,5.69a.36.36,0,0,0,.49.28c1-.34,1.46-.53,2.44-.88a.74.74,0,0,0,.48-.63c-.2-2.31-.29-3.47-.48-5.79-3-4.1-4.56-6.05-7.59-10.58A3.07,3.07,0,0,1,42,55c-.22-2.75-.34-4.13-.56-6.89a3.56,3.56,0,0,1,2.66-3.52c1.75-.49,2.63-.82,4.38-1.45s3.06.2,3.19,1.75l.55,6.63a.71.71,0,0,1-.47.67c-1,.34-1.47.52-2.45.88a.36.36,0,0,1-.49-.33c-.19-2.27-.28-3.41-.47-5.68,0-.28-.27-.36-.55-.26-1,.35-1.47.52-2.44.83a.58.58,0,0,0-.42.58c.19,2.31.28,3.46.47,5.76,3,4.25,4.52,6.16,7.53,10.38a2.09,2.09,0,0,1,.45,1.16c.22,2.74.34,4.12.57,6.87a4,4,0,0,1-2.73,3.8C49.47,76.78,48.6,77.13,46.85,77.73Z"/><path class="cls-2" d="M56.41,74.14,53.74,41.68a.59.59,0,0,1,.42-.58,19.5,19.5,0,0,1,9.26-.94.58.58,0,0,1,.55.52l.2,2.47c0,.28-.19.43-.48.39a18,18,0,0,0-5.85.05.54.54,0,0,0-.41.58c.35,4.28.52,6.42.87,10.72,0,.28.49.39.49.39a17.46,17.46,0,0,1,4.15,0,.63.63,0,0,1,.55.57l.2,2.46c0,.29-.19.43-.47.41a18,18,0,0,0-4.15-.06.52.52,0,0,0-.42.56l.9,11a.5.5,0,0,0,.49.43,23.74,23.74,0,0,1,5.86.49.69.69,0,0,1,.54.56c.09,1,.13,1.52.21,2.53a.38.38,0,0,1-.48.37c-3.71-.66-5.56-.9-9.27-.15A.43.43,0,0,1,56.41,74.14Z"/><path class="cls-2" d="M66.24,41a.34.34,0,0,1,.42-.38c2.41.45,3.62.77,6,1.18a4.89,4.89,0,0,1,4,4.14c.38,4.74.57,7.11,1,11.83a1.94,1.94,0,0,1-.88,1.81c-.51.34-.77.51-1.29.83,1.4,6.23,2.1,9.31,3.51,15.31a.48.48,0,0,1-.41.6,16.7,16.7,0,0,1-2.45,0,.53.53,0,0,1-.48-.44c-1.21-5.46-1.81-8.23-3-13.79l-1.34.66,1,12.69a.29.29,0,0,1-.36.33c-1-.19-1.57-.3-2.62-.51a.56.56,0,0,1-.43-.49Q67.59,57.91,66.24,41ZM74.15,56c-.33-4.11-.49-6.17-.82-10.29a.53.53,0,0,0-.43-.47c-1-.16-1.53-.26-2.56-.47-.22-.05-.43.14-.41.43.41,5.22.62,7.83,1,13A10.91,10.91,0,0,0,73.67,57,1,1,0,0,0,74.15,56Z"/></g></g></g></svg>